<?xml version="1.0" encoding="UTF-8" standalone="no"?>
<!DOCTYPE svg PUBLIC "-//W3C//DTD SVG 1.1//EN"
 "http://www.w3.org/Graphics/SVG/1.1/DTD/svg11.dtd">
<!-- Generated by graphviz version 2.43.0 (0)
 -->
<!-- Title: %3 Pages: 1 -->
<svg width="387pt" height="321pt"
 viewBox="0.00 0.00 387.00 321.18" xmlns="http://www.w3.org/2000/svg" xmlns:xlink="http://www.w3.org/1999/xlink">
<g id="graph0" class="graph" transform="scale(1 1) rotate(0) translate(4 317.18)">
<title>%3</title>
<polygon fill="white" stroke="transparent" points="-4,4 -4,-317.18 383,-317.18 383,4 -4,4"/>
<text text-anchor="start" x="130" y="-297.98" font-family="Helvetica,Arial,sans-serif" font-size="14.00">source code: pi + 2 </text>
<g id="clust1" class="cluster">
<title>cluster_0</title>
<polygon fill="none" stroke="black" points="8,-8 8,-255.68 241,-255.68 241,-8 8,-8"/>
<text text-anchor="middle" x="124.5" y="-240.48" font-family="Helvetica,Arial,sans-serif" font-size="14.00">syntax tree</text>
</g>
<g id="clust2" class="cluster">
<title>cluster_1</title>
<polygon fill="none" stroke="black" points="249,-154.18 249,-282.18 371,-282.18 371,-154.18 249,-154.18"/>
<text text-anchor="middle" x="310" y="-266.98" font-family="Helvetica,Arial,sans-serif" font-size="14.00">machine code</text>
</g>
<!-- e493c3fa&#45;a0cd&#45;4f37&#45;9646&#45;1d319f536450 -->
<g id="node1" class="node">
<title>e493c3fa&#45;a0cd&#45;4f37&#45;9646&#45;1d319f536450</title>
<polygon fill="white" stroke="blue" points="164.5,-224.68 93.5,-224.68 93.5,-188.68 164.5,-188.68 164.5,-224.68"/>
<text text-anchor="middle" x="129" y="-204.78" font-family="Helvetica,Arial,sans-serif" font-size="8.00" fill="blue"> EXPRESSION </text>
</g>
<!-- 1a5ef2b3&#45;cd08&#45;4260&#45;bf65&#45;8c2dc162684b -->
<g id="node2" class="node">
<title>1a5ef2b3&#45;cd08&#45;4260&#45;bf65&#45;8c2dc162684b</title>
<polygon fill="white" stroke="blue" points="79.5,-126.18 16.5,-126.18 16.5,-90.18 79.5,-90.18 79.5,-126.18"/>
<text text-anchor="middle" x="48" y="-106.28" font-family="Helvetica,Arial,sans-serif" font-size="8.00" fill="blue"> CONSTANT </text>
</g>
<!-- e493c3fa&#45;a0cd&#45;4f37&#45;9646&#45;1d319f536450&#45;&#45;1a5ef2b3&#45;cd08&#45;4260&#45;bf65&#45;8c2dc162684b -->
<g id="edge1" class="edge">
<title>e493c3fa&#45;a0cd&#45;4f37&#45;9646&#45;1d319f536450&#45;&#45;1a5ef2b3&#45;cd08&#45;4260&#45;bf65&#45;8c2dc162684b</title>
<path fill="none" stroke="black" d="M114.52,-188.43C99.78,-170.87 77.05,-143.8 62.36,-126.29"/>
</g>
<!-- 388854bc&#45;7ce5&#45;4d16&#45;ac1a&#45;88f642931092 -->
<g id="node4" class="node">
<title>388854bc&#45;7ce5&#45;4d16&#45;ac1a&#45;88f642931092</title>
<polygon fill="white" stroke="blue" points="160.5,-126.18 97.5,-126.18 97.5,-90.18 160.5,-90.18 160.5,-126.18"/>
<text text-anchor="middle" x="129" y="-106.28" font-family="Helvetica,Arial,sans-serif" font-size="8.00" fill="blue"> OPERATOR </text>
</g>
<!-- e493c3fa&#45;a0cd&#45;4f37&#45;9646&#45;1d319f536450&#45;&#45;388854bc&#45;7ce5&#45;4d16&#45;ac1a&#45;88f642931092 -->
<g id="edge4" class="edge">
<title>e493c3fa&#45;a0cd&#45;4f37&#45;9646&#45;1d319f536450&#45;&#45;388854bc&#45;7ce5&#45;4d16&#45;ac1a&#45;88f642931092</title>
<path fill="none" stroke="black" d="M129,-188.43C129,-170.87 129,-143.8 129,-126.29"/>
</g>
<!-- a35dc8bf&#45;2058&#45;469a&#45;a3e2&#45;0b67786619bc -->
<g id="node6" class="node">
<title>a35dc8bf&#45;2058&#45;469a&#45;a3e2&#45;0b67786619bc</title>
<polygon fill="white" stroke="blue" points="233,-126.18 179,-126.18 179,-90.18 233,-90.18 233,-126.18"/>
<text text-anchor="middle" x="206" y="-106.28" font-family="Helvetica,Arial,sans-serif" font-size="8.00" fill="blue"> NUMBER </text>
</g>
<!-- e493c3fa&#45;a0cd&#45;4f37&#45;9646&#45;1d319f536450&#45;&#45;a35dc8bf&#45;2058&#45;469a&#45;a3e2&#45;0b67786619bc -->
<g id="edge5" class="edge">
<title>e493c3fa&#45;a0cd&#45;4f37&#45;9646&#45;1d319f536450&#45;&#45;a35dc8bf&#45;2058&#45;469a&#45;a3e2&#45;0b67786619bc</title>
<path fill="none" stroke="black" d="M142.77,-188.43C156.78,-170.87 178.38,-143.8 192.35,-126.29"/>
</g>
<!-- 47596915&#45;bdb6&#45;4ef3&#45;bf81&#45;4355d1dbe572 -->
<g id="node3" class="node">
<title>47596915&#45;bdb6&#45;4ef3&#45;bf81&#45;4355d1dbe572</title>
<ellipse fill="white" stroke="green" cx="48" cy="-35.09" rx="18" ry="19.18"/>
<text text-anchor="middle" x="48" y="-31.99" font-family="Helvetica,Arial,sans-serif" font-size="12.00" fill="green">pi</text>
</g>
<!-- 1a5ef2b3&#45;cd08&#45;4260&#45;bf65&#45;8c2dc162684b&#45;&#45;47596915&#45;bdb6&#45;4ef3&#45;bf81&#45;4355d1dbe572 -->
<g id="edge2" class="edge">
<title>1a5ef2b3&#45;cd08&#45;4260&#45;bf65&#45;8c2dc162684b&#45;&#45;47596915&#45;bdb6&#45;4ef3&#45;bf81&#45;4355d1dbe572</title>
<path fill="none" stroke="black" d="M48,-89.97C48,-79.21 48,-65.35 48,-54.39"/>
</g>
<!-- c8d74857&#45;6ff8&#45;4699&#45;8d63&#45;0d8f70896bbe -->
<g id="node5" class="node">
<title>c8d74857&#45;6ff8&#45;4699&#45;8d63&#45;0d8f70896bbe</title>
<ellipse fill="white" stroke="red" cx="129" cy="-35.09" rx="18" ry="19.18"/>
<text text-anchor="middle" x="129" y="-31.99" font-family="Helvetica,Arial,sans-serif" font-size="12.00" fill="red">+</text>
</g>
<!-- 388854bc&#45;7ce5&#45;4d16&#45;ac1a&#45;88f642931092&#45;&#45;c8d74857&#45;6ff8&#45;4699&#45;8d63&#45;0d8f70896bbe -->
<g id="edge3" class="edge">
<title>388854bc&#45;7ce5&#45;4d16&#45;ac1a&#45;88f642931092&#45;&#45;c8d74857&#45;6ff8&#45;4699&#45;8d63&#45;0d8f70896bbe</title>
<path fill="none" stroke="black" d="M129,-89.97C129,-79.21 129,-65.35 129,-54.39"/>
</g>
<!-- 031a9e79&#45;ce84&#45;4776&#45;9ec4&#45;6d841db87f5d -->
<g id="node7" class="node">
<title>031a9e79&#45;ce84&#45;4776&#45;9ec4&#45;6d841db87f5d</title>
<ellipse fill="white" stroke="green" cx="206" cy="-35.09" rx="26.74" ry="19.18"/>
<text text-anchor="middle" x="206" y="-31.99" font-family="Helvetica,Arial,sans-serif" font-size="12.00" fill="green">2.00</text>
</g>
<!-- a35dc8bf&#45;2058&#45;469a&#45;a3e2&#45;0b67786619bc&#45;&#45;031a9e79&#45;ce84&#45;4776&#45;9ec4&#45;6d841db87f5d -->
<g id="edge6" class="edge">
<title>a35dc8bf&#45;2058&#45;469a&#45;a3e2&#45;0b67786619bc&#45;&#45;031a9e79&#45;ce84&#45;4776&#45;9ec4&#45;6d841db87f5d</title>
<path fill="none" stroke="black" d="M206,-89.97C206,-79.21 206,-65.35 206,-54.39"/>
</g>
<!-- machine_code -->
<g id="node8" class="node">
<title>machine_code</title>
<polygon fill="white" stroke="transparent" points="363.5,-251.18 256.5,-251.18 256.5,-162.18 363.5,-162.18 363.5,-251.18"/>
<text text-anchor="start" x="263.5" y="-232.98" font-family="Courier:bold" font-size="14.00"># Expression</text>
<text text-anchor="start" x="263.5" y="-217.98" font-family="Courier:bold" font-size="14.00">CONST pi</text>
<text text-anchor="start" x="263.5" y="-202.98" font-family="Courier:bold" font-size="14.00">LIT 2</text>
<text text-anchor="start" x="263.5" y="-187.98" font-family="Courier:bold" font-size="14.00">ADD</text>
<text text-anchor="start" x="263.5" y="-172.98" font-family="Courier:bold" font-size="14.00">NIL</text>
</g>
</g>
</svg>
