<?xml version="1.0" encoding="UTF-8" standalone="no"?>
<!DOCTYPE svg PUBLIC "-//W3C//DTD SVG 1.1//EN"
 "http://www.w3.org/Graphics/SVG/1.1/DTD/svg11.dtd">
<!-- Generated by graphviz version 2.43.0 (0)
 -->
<!-- Title: %3 Pages: 1 -->
<svg width="216pt" height="204pt"
 viewBox="0.00 0.00 216.00 204.18" xmlns="http://www.w3.org/2000/svg" xmlns:xlink="http://www.w3.org/1999/xlink">
<g id="graph0" class="graph" transform="scale(1 1) rotate(0) translate(4 200.18)">
<title>%3</title>
<polygon fill="white" stroke="transparent" points="-4,4 -4,-200.18 212,-200.18 212,4 -4,4"/>
<text text-anchor="start" x="54" y="-180.98" font-family="Helvetica,Arial,sans-serif" font-size="14.00">source code: 42 </text>
<g id="clust1" class="cluster">
<title>cluster_0</title>
<polygon fill="none" stroke="black" points="8,-8 8,-161.18 91,-161.18 91,-8 8,-8"/>
<text text-anchor="middle" x="49.5" y="-145.98" font-family="Helvetica,Arial,sans-serif" font-size="14.00">syntax tree</text>
</g>
<g id="clust2" class="cluster">
<title>cluster_1</title>
<polygon fill="none" stroke="black" points="99,-82.18 99,-165.18 200,-165.18 200,-82.18 99,-82.18"/>
<text text-anchor="middle" x="149.5" y="-149.98" font-family="Helvetica,Arial,sans-serif" font-size="14.00">machine code</text>
</g>
<!-- 1b54f216&#45;ad1c&#45;4632&#45;8bbb&#45;d18cbe4af99a -->
<g id="node1" class="node">
<title>1b54f216&#45;ad1c&#45;4632&#45;8bbb&#45;d18cbe4af99a</title>
<polygon fill="white" stroke="blue" points="76,-130.18 22,-130.18 22,-94.18 76,-94.18 76,-130.18"/>
<text text-anchor="middle" x="49" y="-110.28" font-family="Helvetica,Arial,sans-serif" font-size="8.00" fill="blue"> NUMBER </text>
</g>
<!-- d5fcd86a&#45;b9e7&#45;44db&#45;8e5c&#45;2db36dc01a28 -->
<g id="node2" class="node">
<title>d5fcd86a&#45;b9e7&#45;44db&#45;8e5c&#45;2db36dc01a28</title>
<ellipse fill="white" stroke="green" cx="49" cy="-35.09" rx="31.64" ry="19.18"/>
<text text-anchor="middle" x="49" y="-31.99" font-family="Helvetica,Arial,sans-serif" font-size="12.00" fill="green">42.00</text>
</g>
<!-- 1b54f216&#45;ad1c&#45;4632&#45;8bbb&#45;d18cbe4af99a&#45;&#45;d5fcd86a&#45;b9e7&#45;44db&#45;8e5c&#45;2db36dc01a28 -->
<g id="edge1" class="edge">
<title>1b54f216&#45;ad1c&#45;4632&#45;8bbb&#45;d18cbe4af99a&#45;&#45;d5fcd86a&#45;b9e7&#45;44db&#45;8e5c&#45;2db36dc01a28</title>
<path fill="none" stroke="black" d="M49,-94.14C49,-82.29 49,-66.5 49,-54.38"/>
</g>
<!-- machine_code -->
<g id="node3" class="node">
<title>machine_code</title>
<polygon fill="white" stroke="transparent" points="177.5,-134.18 120.5,-134.18 120.5,-90.18 177.5,-90.18 177.5,-134.18"/>
<text text-anchor="start" x="127.5" y="-115.98" font-family="Courier:bold" font-size="14.00">LIT 42</text>
<text text-anchor="start" x="127.5" y="-100.98" font-family="Courier:bold" font-size="14.00">NIL</text>
</g>
</g>
</svg>
