<?xml version="1.0" encoding="UTF-8" standalone="no"?>
<!DOCTYPE svg PUBLIC "-//W3C//DTD SVG 1.1//EN"
 "http://www.w3.org/Graphics/SVG/1.1/DTD/svg11.dtd">
<!-- Generated by graphviz version 2.43.0 (0)
 -->
<!-- Title: %3 Pages: 1 -->
<svg width="378pt" height="321pt"
 viewBox="0.00 0.00 378.00 321.18" xmlns="http://www.w3.org/2000/svg" xmlns:xlink="http://www.w3.org/1999/xlink">
<g id="graph0" class="graph" transform="scale(1 1) rotate(0) translate(4 317.18)">
<title>%3</title>
<polygon fill="white" stroke="transparent" points="-4,4 -4,-317.18 374,-317.18 374,4 -4,4"/>
<text text-anchor="start" x="123" y="-297.98" font-family="Helvetica,Arial,sans-serif" font-size="14.00">source code: 42+24 </text>
<g id="clust1" class="cluster">
<title>cluster_0</title>
<polygon fill="none" stroke="black" points="8,-8 8,-255.68 232,-255.68 232,-8 8,-8"/>
<text text-anchor="middle" x="120" y="-240.48" font-family="Helvetica,Arial,sans-serif" font-size="14.00">syntax tree</text>
</g>
<g id="clust2" class="cluster">
<title>cluster_1</title>
<polygon fill="none" stroke="black" points="240,-154.18 240,-282.18 362,-282.18 362,-154.18 240,-154.18"/>
<text text-anchor="middle" x="301" y="-266.98" font-family="Helvetica,Arial,sans-serif" font-size="14.00">machine code</text>
</g>
<!-- 49469ec3&#45;5608&#45;42a8&#45;91bf&#45;6928d39548ea -->
<g id="node1" class="node">
<title>49469ec3&#45;5608&#45;42a8&#45;91bf&#45;6928d39548ea</title>
<polygon fill="white" stroke="blue" points="155.5,-224.68 84.5,-224.68 84.5,-188.68 155.5,-188.68 155.5,-224.68"/>
<text text-anchor="middle" x="120" y="-204.78" font-family="Helvetica,Arial,sans-serif" font-size="8.00" fill="blue"> EXPRESSION </text>
</g>
<!-- ca21e894&#45;0339&#45;43e0&#45;8a90&#45;5e3b041f1fb7 -->
<g id="node2" class="node">
<title>ca21e894&#45;0339&#45;43e0&#45;8a90&#45;5e3b041f1fb7</title>
<polygon fill="white" stroke="blue" points="70,-126.18 16,-126.18 16,-90.18 70,-90.18 70,-126.18"/>
<text text-anchor="middle" x="43" y="-106.28" font-family="Helvetica,Arial,sans-serif" font-size="8.00" fill="blue"> NUMBER </text>
</g>
<!-- 49469ec3&#45;5608&#45;42a8&#45;91bf&#45;6928d39548ea&#45;&#45;ca21e894&#45;0339&#45;43e0&#45;8a90&#45;5e3b041f1fb7 -->
<g id="edge1" class="edge">
<title>49469ec3&#45;5608&#45;42a8&#45;91bf&#45;6928d39548ea&#45;&#45;ca21e894&#45;0339&#45;43e0&#45;8a90&#45;5e3b041f1fb7</title>
<path fill="none" stroke="black" d="M106.23,-188.43C92.22,-170.87 70.62,-143.8 56.65,-126.29"/>
</g>
<!-- f120b644&#45;8440&#45;43b1&#45;8baf&#45;db8ef1ce60a9 -->
<g id="node4" class="node">
<title>f120b644&#45;8440&#45;43b1&#45;8baf&#45;db8ef1ce60a9</title>
<polygon fill="white" stroke="blue" points="151.5,-126.18 88.5,-126.18 88.5,-90.18 151.5,-90.18 151.5,-126.18"/>
<text text-anchor="middle" x="120" y="-106.28" font-family="Helvetica,Arial,sans-serif" font-size="8.00" fill="blue"> OPERATOR </text>
</g>
<!-- 49469ec3&#45;5608&#45;42a8&#45;91bf&#45;6928d39548ea&#45;&#45;f120b644&#45;8440&#45;43b1&#45;8baf&#45;db8ef1ce60a9 -->
<g id="edge4" class="edge">
<title>49469ec3&#45;5608&#45;42a8&#45;91bf&#45;6928d39548ea&#45;&#45;f120b644&#45;8440&#45;43b1&#45;8baf&#45;db8ef1ce60a9</title>
<path fill="none" stroke="black" d="M120,-188.43C120,-170.87 120,-143.8 120,-126.29"/>
</g>
<!-- 0dbc3e6c&#45;a252&#45;4dd0&#45;a2b3&#45;add6962bedca -->
<g id="node6" class="node">
<title>0dbc3e6c&#45;a252&#45;4dd0&#45;a2b3&#45;add6962bedca</title>
<polygon fill="white" stroke="blue" points="224,-126.18 170,-126.18 170,-90.18 224,-90.18 224,-126.18"/>
<text text-anchor="middle" x="197" y="-106.28" font-family="Helvetica,Arial,sans-serif" font-size="8.00" fill="blue"> NUMBER </text>
</g>
<!-- 49469ec3&#45;5608&#45;42a8&#45;91bf&#45;6928d39548ea&#45;&#45;0dbc3e6c&#45;a252&#45;4dd0&#45;a2b3&#45;add6962bedca -->
<g id="edge5" class="edge">
<title>49469ec3&#45;5608&#45;42a8&#45;91bf&#45;6928d39548ea&#45;&#45;0dbc3e6c&#45;a252&#45;4dd0&#45;a2b3&#45;add6962bedca</title>
<path fill="none" stroke="black" d="M133.77,-188.43C147.78,-170.87 169.38,-143.8 183.35,-126.29"/>
</g>
<!-- ca841a89&#45;0338&#45;4ec0&#45;bf1e&#45;b4bf0b565b53 -->
<g id="node3" class="node">
<title>ca841a89&#45;0338&#45;4ec0&#45;bf1e&#45;b4bf0b565b53</title>
<ellipse fill="white" stroke="green" cx="48" cy="-35.09" rx="31.64" ry="19.18"/>
<text text-anchor="middle" x="48" y="-31.99" font-family="Helvetica,Arial,sans-serif" font-size="12.00" fill="green">42.00</text>
</g>
<!-- ca21e894&#45;0339&#45;43e0&#45;8a90&#45;5e3b041f1fb7&#45;&#45;ca841a89&#45;0338&#45;4ec0&#45;bf1e&#45;b4bf0b565b53 -->
<g id="edge2" class="edge">
<title>ca21e894&#45;0339&#45;43e0&#45;8a90&#45;5e3b041f1fb7&#45;&#45;ca841a89&#45;0338&#45;4ec0&#45;bf1e&#45;b4bf0b565b53</title>
<path fill="none" stroke="black" d="M44.21,-89.97C44.97,-79.21 45.94,-65.35 46.71,-54.39"/>
</g>
<!-- 8a1c24cf&#45;2038&#45;4d00&#45;b261&#45;e5f980f4b568 -->
<g id="node5" class="node">
<title>8a1c24cf&#45;2038&#45;4d00&#45;b261&#45;e5f980f4b568</title>
<ellipse fill="white" stroke="red" cx="120" cy="-35.09" rx="18" ry="19.18"/>
<text text-anchor="middle" x="120" y="-31.99" font-family="Helvetica,Arial,sans-serif" font-size="12.00" fill="red">+</text>
</g>
<!-- f120b644&#45;8440&#45;43b1&#45;8baf&#45;db8ef1ce60a9&#45;&#45;8a1c24cf&#45;2038&#45;4d00&#45;b261&#45;e5f980f4b568 -->
<g id="edge3" class="edge">
<title>f120b644&#45;8440&#45;43b1&#45;8baf&#45;db8ef1ce60a9&#45;&#45;8a1c24cf&#45;2038&#45;4d00&#45;b261&#45;e5f980f4b568</title>
<path fill="none" stroke="black" d="M120,-89.97C120,-79.21 120,-65.35 120,-54.39"/>
</g>
<!-- 10cc14b9&#45;820a&#45;470e&#45;8cf4&#45;44e881ac7813 -->
<g id="node7" class="node">
<title>10cc14b9&#45;820a&#45;470e&#45;8cf4&#45;44e881ac7813</title>
<ellipse fill="white" stroke="green" cx="192" cy="-35.09" rx="31.64" ry="19.18"/>
<text text-anchor="middle" x="192" y="-31.99" font-family="Helvetica,Arial,sans-serif" font-size="12.00" fill="green">24.00</text>
</g>
<!-- 0dbc3e6c&#45;a252&#45;4dd0&#45;a2b3&#45;add6962bedca&#45;&#45;10cc14b9&#45;820a&#45;470e&#45;8cf4&#45;44e881ac7813 -->
<g id="edge6" class="edge">
<title>0dbc3e6c&#45;a252&#45;4dd0&#45;a2b3&#45;add6962bedca&#45;&#45;10cc14b9&#45;820a&#45;470e&#45;8cf4&#45;44e881ac7813</title>
<path fill="none" stroke="black" d="M195.79,-89.97C195.03,-79.21 194.06,-65.35 193.29,-54.39"/>
</g>
<!-- machine_code -->
<g id="node8" class="node">
<title>machine_code</title>
<polygon fill="white" stroke="transparent" points="354.5,-251.18 247.5,-251.18 247.5,-162.18 354.5,-162.18 354.5,-251.18"/>
<text text-anchor="start" x="254.5" y="-232.98" font-family="Courier:bold" font-size="14.00"># Expression</text>
<text text-anchor="start" x="254.5" y="-217.98" font-family="Courier:bold" font-size="14.00">LIT 42</text>
<text text-anchor="start" x="254.5" y="-202.98" font-family="Courier:bold" font-size="14.00">LIT 24</text>
<text text-anchor="start" x="254.5" y="-187.98" font-family="Courier:bold" font-size="14.00">ADD</text>
<text text-anchor="start" x="254.5" y="-172.98" font-family="Courier:bold" font-size="14.00">NIL</text>
</g>
</g>
</svg>
