<?xml version="1.0" encoding="UTF-8" standalone="no"?>
<!DOCTYPE svg PUBLIC "-//W3C//DTD SVG 1.1//EN"
 "http://www.w3.org/Graphics/SVG/1.1/DTD/svg11.dtd">
<!-- Generated by graphviz version 2.43.0 (0)
 -->
<!-- Title: %3 Pages: 1 -->
<svg width="378pt" height="321pt"
 viewBox="0.00 0.00 378.00 321.18" xmlns="http://www.w3.org/2000/svg" xmlns:xlink="http://www.w3.org/1999/xlink">
<g id="graph0" class="graph" transform="scale(1 1) rotate(0) translate(4 317.18)">
<title>%3</title>
<polygon fill="white" stroke="transparent" points="-4,4 -4,-317.18 374,-317.18 374,4 -4,4"/>
<text text-anchor="start" x="123" y="-297.98" font-family="Helvetica,Arial,sans-serif" font-size="14.00">source code: 42+24 </text>
<g id="clust1" class="cluster">
<title>cluster_0</title>
<polygon fill="none" stroke="black" points="8,-8 8,-255.68 232,-255.68 232,-8 8,-8"/>
<text text-anchor="middle" x="120" y="-240.48" font-family="Helvetica,Arial,sans-serif" font-size="14.00">syntax tree</text>
</g>
<g id="clust2" class="cluster">
<title>cluster_1</title>
<polygon fill="none" stroke="black" points="240,-154.18 240,-282.18 362,-282.18 362,-154.18 240,-154.18"/>
<text text-anchor="middle" x="301" y="-266.98" font-family="Helvetica,Arial,sans-serif" font-size="14.00">machine code</text>
</g>
<!-- 4ecdacf4&#45;93ca&#45;4851&#45;8d69&#45;d522abded599 -->
<g id="node1" class="node">
<title>4ecdacf4&#45;93ca&#45;4851&#45;8d69&#45;d522abded599</title>
<polygon fill="white" stroke="blue" points="155.5,-224.68 84.5,-224.68 84.5,-188.68 155.5,-188.68 155.5,-224.68"/>
<text text-anchor="middle" x="120" y="-204.78" font-family="Helvetica,Arial,sans-serif" font-size="8.00" fill="blue"> EXPRESSION </text>
</g>
<!-- 261126ea&#45;cca4&#45;4bfa&#45;b4b2&#45;59e889a43909 -->
<g id="node2" class="node">
<title>261126ea&#45;cca4&#45;4bfa&#45;b4b2&#45;59e889a43909</title>
<polygon fill="white" stroke="blue" points="70,-126.18 16,-126.18 16,-90.18 70,-90.18 70,-126.18"/>
<text text-anchor="middle" x="43" y="-106.28" font-family="Helvetica,Arial,sans-serif" font-size="8.00" fill="blue"> NUMBER </text>
</g>
<!-- 4ecdacf4&#45;93ca&#45;4851&#45;8d69&#45;d522abded599&#45;&#45;261126ea&#45;cca4&#45;4bfa&#45;b4b2&#45;59e889a43909 -->
<g id="edge1" class="edge">
<title>4ecdacf4&#45;93ca&#45;4851&#45;8d69&#45;d522abded599&#45;&#45;261126ea&#45;cca4&#45;4bfa&#45;b4b2&#45;59e889a43909</title>
<path fill="none" stroke="black" d="M106.23,-188.43C92.22,-170.87 70.62,-143.8 56.65,-126.29"/>
</g>
<!-- 388aea7f&#45;005c&#45;4329&#45;86ff&#45;21075ca34136 -->
<g id="node4" class="node">
<title>388aea7f&#45;005c&#45;4329&#45;86ff&#45;21075ca34136</title>
<polygon fill="white" stroke="blue" points="151.5,-126.18 88.5,-126.18 88.5,-90.18 151.5,-90.18 151.5,-126.18"/>
<text text-anchor="middle" x="120" y="-106.28" font-family="Helvetica,Arial,sans-serif" font-size="8.00" fill="blue"> OPERATOR </text>
</g>
<!-- 4ecdacf4&#45;93ca&#45;4851&#45;8d69&#45;d522abded599&#45;&#45;388aea7f&#45;005c&#45;4329&#45;86ff&#45;21075ca34136 -->
<g id="edge4" class="edge">
<title>4ecdacf4&#45;93ca&#45;4851&#45;8d69&#45;d522abded599&#45;&#45;388aea7f&#45;005c&#45;4329&#45;86ff&#45;21075ca34136</title>
<path fill="none" stroke="black" d="M120,-188.43C120,-170.87 120,-143.8 120,-126.29"/>
</g>
<!-- d353a317&#45;8f31&#45;4743&#45;98cc&#45;d6fbb3fe2255 -->
<g id="node6" class="node">
<title>d353a317&#45;8f31&#45;4743&#45;98cc&#45;d6fbb3fe2255</title>
<polygon fill="white" stroke="blue" points="224,-126.18 170,-126.18 170,-90.18 224,-90.18 224,-126.18"/>
<text text-anchor="middle" x="197" y="-106.28" font-family="Helvetica,Arial,sans-serif" font-size="8.00" fill="blue"> NUMBER </text>
</g>
<!-- 4ecdacf4&#45;93ca&#45;4851&#45;8d69&#45;d522abded599&#45;&#45;d353a317&#45;8f31&#45;4743&#45;98cc&#45;d6fbb3fe2255 -->
<g id="edge5" class="edge">
<title>4ecdacf4&#45;93ca&#45;4851&#45;8d69&#45;d522abded599&#45;&#45;d353a317&#45;8f31&#45;4743&#45;98cc&#45;d6fbb3fe2255</title>
<path fill="none" stroke="black" d="M133.77,-188.43C147.78,-170.87 169.38,-143.8 183.35,-126.29"/>
</g>
<!-- 3abf0892&#45;78f1&#45;4de8&#45;bff6&#45;0176b76c48bf -->
<g id="node3" class="node">
<title>3abf0892&#45;78f1&#45;4de8&#45;bff6&#45;0176b76c48bf</title>
<ellipse fill="white" stroke="green" cx="48" cy="-35.09" rx="31.64" ry="19.18"/>
<text text-anchor="middle" x="48" y="-31.99" font-family="Helvetica,Arial,sans-serif" font-size="12.00" fill="green">42.00</text>
</g>
<!-- 261126ea&#45;cca4&#45;4bfa&#45;b4b2&#45;59e889a43909&#45;&#45;3abf0892&#45;78f1&#45;4de8&#45;bff6&#45;0176b76c48bf -->
<g id="edge2" class="edge">
<title>261126ea&#45;cca4&#45;4bfa&#45;b4b2&#45;59e889a43909&#45;&#45;3abf0892&#45;78f1&#45;4de8&#45;bff6&#45;0176b76c48bf</title>
<path fill="none" stroke="black" d="M44.21,-89.97C44.97,-79.21 45.94,-65.35 46.71,-54.39"/>
</g>
<!-- 5388ffbe&#45;b9e4&#45;434c&#45;9461&#45;e4d017b218cf -->
<g id="node5" class="node">
<title>5388ffbe&#45;b9e4&#45;434c&#45;9461&#45;e4d017b218cf</title>
<ellipse fill="white" stroke="red" cx="120" cy="-35.09" rx="18" ry="19.18"/>
<text text-anchor="middle" x="120" y="-31.99" font-family="Helvetica,Arial,sans-serif" font-size="12.00" fill="red">+</text>
</g>
<!-- 388aea7f&#45;005c&#45;4329&#45;86ff&#45;21075ca34136&#45;&#45;5388ffbe&#45;b9e4&#45;434c&#45;9461&#45;e4d017b218cf -->
<g id="edge3" class="edge">
<title>388aea7f&#45;005c&#45;4329&#45;86ff&#45;21075ca34136&#45;&#45;5388ffbe&#45;b9e4&#45;434c&#45;9461&#45;e4d017b218cf</title>
<path fill="none" stroke="black" d="M120,-89.97C120,-79.21 120,-65.35 120,-54.39"/>
</g>
<!-- 0da13f9a&#45;9228&#45;4893&#45;8c26&#45;adc59d20efff -->
<g id="node7" class="node">
<title>0da13f9a&#45;9228&#45;4893&#45;8c26&#45;adc59d20efff</title>
<ellipse fill="white" stroke="green" cx="192" cy="-35.09" rx="31.64" ry="19.18"/>
<text text-anchor="middle" x="192" y="-31.99" font-family="Helvetica,Arial,sans-serif" font-size="12.00" fill="green">24.00</text>
</g>
<!-- d353a317&#45;8f31&#45;4743&#45;98cc&#45;d6fbb3fe2255&#45;&#45;0da13f9a&#45;9228&#45;4893&#45;8c26&#45;adc59d20efff -->
<g id="edge6" class="edge">
<title>d353a317&#45;8f31&#45;4743&#45;98cc&#45;d6fbb3fe2255&#45;&#45;0da13f9a&#45;9228&#45;4893&#45;8c26&#45;adc59d20efff</title>
<path fill="none" stroke="black" d="M195.79,-89.97C195.03,-79.21 194.06,-65.35 193.29,-54.39"/>
</g>
<!-- machine_code -->
<g id="node8" class="node">
<title>machine_code</title>
<polygon fill="white" stroke="transparent" points="354.5,-251.18 247.5,-251.18 247.5,-162.18 354.5,-162.18 354.5,-251.18"/>
<text text-anchor="start" x="254.5" y="-232.98" font-family="Courier:bold" font-size="14.00"># Expression</text>
<text text-anchor="start" x="254.5" y="-217.98" font-family="Courier:bold" font-size="14.00">LIT 42</text>
<text text-anchor="start" x="254.5" y="-202.98" font-family="Courier:bold" font-size="14.00">LIT 24</text>
<text text-anchor="start" x="254.5" y="-187.98" font-family="Courier:bold" font-size="14.00">ADD</text>
<text text-anchor="start" x="254.5" y="-172.98" font-family="Courier:bold" font-size="14.00">NIL</text>
</g>
</g>
</svg>
