<?xml version="1.0" encoding="UTF-8" standalone="no"?>
<!DOCTYPE svg PUBLIC "-//W3C//DTD SVG 1.1//EN"
 "http://www.w3.org/Graphics/SVG/1.1/DTD/svg11.dtd">
<!-- Generated by graphviz version 2.43.0 (0)
 -->
<!-- Title: %3 Pages: 1 -->
<svg width="387pt" height="321pt"
 viewBox="0.00 0.00 387.00 321.18" xmlns="http://www.w3.org/2000/svg" xmlns:xlink="http://www.w3.org/1999/xlink">
<g id="graph0" class="graph" transform="scale(1 1) rotate(0) translate(4 317.18)">
<title>%3</title>
<polygon fill="white" stroke="transparent" points="-4,4 -4,-317.18 383,-317.18 383,4 -4,4"/>
<text text-anchor="start" x="130" y="-297.98" font-family="Helvetica,Arial,sans-serif" font-size="14.00">source code: pi + 2 </text>
<g id="clust1" class="cluster">
<title>cluster_0</title>
<polygon fill="none" stroke="black" points="8,-8 8,-255.68 241,-255.68 241,-8 8,-8"/>
<text text-anchor="middle" x="124.5" y="-240.48" font-family="Helvetica,Arial,sans-serif" font-size="14.00">syntax tree</text>
</g>
<g id="clust2" class="cluster">
<title>cluster_1</title>
<polygon fill="none" stroke="black" points="249,-154.18 249,-282.18 371,-282.18 371,-154.18 249,-154.18"/>
<text text-anchor="middle" x="310" y="-266.98" font-family="Helvetica,Arial,sans-serif" font-size="14.00">machine code</text>
</g>
<!-- ed52dee9&#45;6a05&#45;42a2&#45;83a5&#45;cf191f5293ce -->
<g id="node1" class="node">
<title>ed52dee9&#45;6a05&#45;42a2&#45;83a5&#45;cf191f5293ce</title>
<polygon fill="white" stroke="blue" points="164.5,-224.68 93.5,-224.68 93.5,-188.68 164.5,-188.68 164.5,-224.68"/>
<text text-anchor="middle" x="129" y="-204.78" font-family="Helvetica,Arial,sans-serif" font-size="8.00" fill="blue"> EXPRESSION </text>
</g>
<!-- f0b5d9df&#45;7720&#45;41ee&#45;ba77&#45;b9ff332ab9e2 -->
<g id="node2" class="node">
<title>f0b5d9df&#45;7720&#45;41ee&#45;ba77&#45;b9ff332ab9e2</title>
<polygon fill="white" stroke="blue" points="79.5,-126.18 16.5,-126.18 16.5,-90.18 79.5,-90.18 79.5,-126.18"/>
<text text-anchor="middle" x="48" y="-106.28" font-family="Helvetica,Arial,sans-serif" font-size="8.00" fill="blue"> CONSTANT </text>
</g>
<!-- ed52dee9&#45;6a05&#45;42a2&#45;83a5&#45;cf191f5293ce&#45;&#45;f0b5d9df&#45;7720&#45;41ee&#45;ba77&#45;b9ff332ab9e2 -->
<g id="edge1" class="edge">
<title>ed52dee9&#45;6a05&#45;42a2&#45;83a5&#45;cf191f5293ce&#45;&#45;f0b5d9df&#45;7720&#45;41ee&#45;ba77&#45;b9ff332ab9e2</title>
<path fill="none" stroke="black" d="M114.52,-188.43C99.78,-170.87 77.05,-143.8 62.36,-126.29"/>
</g>
<!-- ad259c4a&#45;f336&#45;42d2&#45;bcde&#45;fb7c1d1e4fea -->
<g id="node4" class="node">
<title>ad259c4a&#45;f336&#45;42d2&#45;bcde&#45;fb7c1d1e4fea</title>
<polygon fill="white" stroke="blue" points="160.5,-126.18 97.5,-126.18 97.5,-90.18 160.5,-90.18 160.5,-126.18"/>
<text text-anchor="middle" x="129" y="-106.28" font-family="Helvetica,Arial,sans-serif" font-size="8.00" fill="blue"> OPERATOR </text>
</g>
<!-- ed52dee9&#45;6a05&#45;42a2&#45;83a5&#45;cf191f5293ce&#45;&#45;ad259c4a&#45;f336&#45;42d2&#45;bcde&#45;fb7c1d1e4fea -->
<g id="edge4" class="edge">
<title>ed52dee9&#45;6a05&#45;42a2&#45;83a5&#45;cf191f5293ce&#45;&#45;ad259c4a&#45;f336&#45;42d2&#45;bcde&#45;fb7c1d1e4fea</title>
<path fill="none" stroke="black" d="M129,-188.43C129,-170.87 129,-143.8 129,-126.29"/>
</g>
<!-- 5d2134b9&#45;91c7&#45;405b&#45;bc3e&#45;f9d36e8ed872 -->
<g id="node6" class="node">
<title>5d2134b9&#45;91c7&#45;405b&#45;bc3e&#45;f9d36e8ed872</title>
<polygon fill="white" stroke="blue" points="233,-126.18 179,-126.18 179,-90.18 233,-90.18 233,-126.18"/>
<text text-anchor="middle" x="206" y="-106.28" font-family="Helvetica,Arial,sans-serif" font-size="8.00" fill="blue"> NUMBER </text>
</g>
<!-- ed52dee9&#45;6a05&#45;42a2&#45;83a5&#45;cf191f5293ce&#45;&#45;5d2134b9&#45;91c7&#45;405b&#45;bc3e&#45;f9d36e8ed872 -->
<g id="edge5" class="edge">
<title>ed52dee9&#45;6a05&#45;42a2&#45;83a5&#45;cf191f5293ce&#45;&#45;5d2134b9&#45;91c7&#45;405b&#45;bc3e&#45;f9d36e8ed872</title>
<path fill="none" stroke="black" d="M142.77,-188.43C156.78,-170.87 178.38,-143.8 192.35,-126.29"/>
</g>
<!-- 5ea057c3&#45;9eee&#45;49c8&#45;ad52&#45;a945c31d419e -->
<g id="node3" class="node">
<title>5ea057c3&#45;9eee&#45;49c8&#45;ad52&#45;a945c31d419e</title>
<ellipse fill="white" stroke="green" cx="48" cy="-35.09" rx="18" ry="19.18"/>
<text text-anchor="middle" x="48" y="-31.99" font-family="Helvetica,Arial,sans-serif" font-size="12.00" fill="green">pi</text>
</g>
<!-- f0b5d9df&#45;7720&#45;41ee&#45;ba77&#45;b9ff332ab9e2&#45;&#45;5ea057c3&#45;9eee&#45;49c8&#45;ad52&#45;a945c31d419e -->
<g id="edge2" class="edge">
<title>f0b5d9df&#45;7720&#45;41ee&#45;ba77&#45;b9ff332ab9e2&#45;&#45;5ea057c3&#45;9eee&#45;49c8&#45;ad52&#45;a945c31d419e</title>
<path fill="none" stroke="black" d="M48,-89.97C48,-79.21 48,-65.35 48,-54.39"/>
</g>
<!-- 4ef1c468&#45;e368&#45;46f5&#45;9581&#45;1a7f1cd62de4 -->
<g id="node5" class="node">
<title>4ef1c468&#45;e368&#45;46f5&#45;9581&#45;1a7f1cd62de4</title>
<ellipse fill="white" stroke="red" cx="129" cy="-35.09" rx="18" ry="19.18"/>
<text text-anchor="middle" x="129" y="-31.99" font-family="Helvetica,Arial,sans-serif" font-size="12.00" fill="red">+</text>
</g>
<!-- ad259c4a&#45;f336&#45;42d2&#45;bcde&#45;fb7c1d1e4fea&#45;&#45;4ef1c468&#45;e368&#45;46f5&#45;9581&#45;1a7f1cd62de4 -->
<g id="edge3" class="edge">
<title>ad259c4a&#45;f336&#45;42d2&#45;bcde&#45;fb7c1d1e4fea&#45;&#45;4ef1c468&#45;e368&#45;46f5&#45;9581&#45;1a7f1cd62de4</title>
<path fill="none" stroke="black" d="M129,-89.97C129,-79.21 129,-65.35 129,-54.39"/>
</g>
<!-- 4966cd0c&#45;4e5d&#45;41dd&#45;86af&#45;b7607c7ac160 -->
<g id="node7" class="node">
<title>4966cd0c&#45;4e5d&#45;41dd&#45;86af&#45;b7607c7ac160</title>
<ellipse fill="white" stroke="green" cx="206" cy="-35.09" rx="26.74" ry="19.18"/>
<text text-anchor="middle" x="206" y="-31.99" font-family="Helvetica,Arial,sans-serif" font-size="12.00" fill="green">2.00</text>
</g>
<!-- 5d2134b9&#45;91c7&#45;405b&#45;bc3e&#45;f9d36e8ed872&#45;&#45;4966cd0c&#45;4e5d&#45;41dd&#45;86af&#45;b7607c7ac160 -->
<g id="edge6" class="edge">
<title>5d2134b9&#45;91c7&#45;405b&#45;bc3e&#45;f9d36e8ed872&#45;&#45;4966cd0c&#45;4e5d&#45;41dd&#45;86af&#45;b7607c7ac160</title>
<path fill="none" stroke="black" d="M206,-89.97C206,-79.21 206,-65.35 206,-54.39"/>
</g>
<!-- machine_code -->
<g id="node8" class="node">
<title>machine_code</title>
<polygon fill="white" stroke="transparent" points="363.5,-251.18 256.5,-251.18 256.5,-162.18 363.5,-162.18 363.5,-251.18"/>
<text text-anchor="start" x="263.5" y="-232.98" font-family="Courier:bold" font-size="14.00"># Expression</text>
<text text-anchor="start" x="263.5" y="-217.98" font-family="Courier:bold" font-size="14.00">CONST pi</text>
<text text-anchor="start" x="263.5" y="-202.98" font-family="Courier:bold" font-size="14.00">LIT 2</text>
<text text-anchor="start" x="263.5" y="-187.98" font-family="Courier:bold" font-size="14.00">ADD</text>
<text text-anchor="start" x="263.5" y="-172.98" font-family="Courier:bold" font-size="14.00">NIL</text>
</g>
</g>
</svg>
