<?xml version="1.0" encoding="UTF-8" standalone="no"?>
<!DOCTYPE svg PUBLIC "-//W3C//DTD SVG 1.1//EN"
 "http://www.w3.org/Graphics/SVG/1.1/DTD/svg11.dtd">
<!-- Generated by graphviz version 2.43.0 (0)
 -->
<!-- Title: %3 Pages: 1 -->
<svg width="378pt" height="321pt"
 viewBox="0.00 0.00 378.00 321.18" xmlns="http://www.w3.org/2000/svg" xmlns:xlink="http://www.w3.org/1999/xlink">
<g id="graph0" class="graph" transform="scale(1 1) rotate(0) translate(4 317.18)">
<title>%3</title>
<polygon fill="white" stroke="transparent" points="-4,4 -4,-317.18 374,-317.18 374,4 -4,4"/>
<text text-anchor="start" x="123" y="-297.98" font-family="Helvetica,Arial,sans-serif" font-size="14.00">source code: 42+24 </text>
<g id="clust1" class="cluster">
<title>cluster_0</title>
<polygon fill="none" stroke="black" points="8,-8 8,-255.68 232,-255.68 232,-8 8,-8"/>
<text text-anchor="middle" x="120" y="-240.48" font-family="Helvetica,Arial,sans-serif" font-size="14.00">syntax tree</text>
</g>
<g id="clust2" class="cluster">
<title>cluster_1</title>
<polygon fill="none" stroke="black" points="240,-154.18 240,-282.18 362,-282.18 362,-154.18 240,-154.18"/>
<text text-anchor="middle" x="301" y="-266.98" font-family="Helvetica,Arial,sans-serif" font-size="14.00">machine code</text>
</g>
<!-- d1ad7f94&#45;bf62&#45;465c&#45;a77a&#45;7d33bc0811a9 -->
<g id="node1" class="node">
<title>d1ad7f94&#45;bf62&#45;465c&#45;a77a&#45;7d33bc0811a9</title>
<polygon fill="white" stroke="blue" points="155.5,-224.68 84.5,-224.68 84.5,-188.68 155.5,-188.68 155.5,-224.68"/>
<text text-anchor="middle" x="120" y="-204.78" font-family="Helvetica,Arial,sans-serif" font-size="8.00" fill="blue"> EXPRESSION </text>
</g>
<!-- bdf54435&#45;bbc3&#45;4cec&#45;9341&#45;82dc0d96c693 -->
<g id="node2" class="node">
<title>bdf54435&#45;bbc3&#45;4cec&#45;9341&#45;82dc0d96c693</title>
<polygon fill="white" stroke="blue" points="70,-126.18 16,-126.18 16,-90.18 70,-90.18 70,-126.18"/>
<text text-anchor="middle" x="43" y="-106.28" font-family="Helvetica,Arial,sans-serif" font-size="8.00" fill="blue"> NUMBER </text>
</g>
<!-- d1ad7f94&#45;bf62&#45;465c&#45;a77a&#45;7d33bc0811a9&#45;&#45;bdf54435&#45;bbc3&#45;4cec&#45;9341&#45;82dc0d96c693 -->
<g id="edge1" class="edge">
<title>d1ad7f94&#45;bf62&#45;465c&#45;a77a&#45;7d33bc0811a9&#45;&#45;bdf54435&#45;bbc3&#45;4cec&#45;9341&#45;82dc0d96c693</title>
<path fill="none" stroke="black" d="M106.23,-188.43C92.22,-170.87 70.62,-143.8 56.65,-126.29"/>
</g>
<!-- 08746c29&#45;0759&#45;4d5f&#45;8ee4&#45;bd327723004e -->
<g id="node4" class="node">
<title>08746c29&#45;0759&#45;4d5f&#45;8ee4&#45;bd327723004e</title>
<polygon fill="white" stroke="blue" points="151.5,-126.18 88.5,-126.18 88.5,-90.18 151.5,-90.18 151.5,-126.18"/>
<text text-anchor="middle" x="120" y="-106.28" font-family="Helvetica,Arial,sans-serif" font-size="8.00" fill="blue"> OPERATOR </text>
</g>
<!-- d1ad7f94&#45;bf62&#45;465c&#45;a77a&#45;7d33bc0811a9&#45;&#45;08746c29&#45;0759&#45;4d5f&#45;8ee4&#45;bd327723004e -->
<g id="edge4" class="edge">
<title>d1ad7f94&#45;bf62&#45;465c&#45;a77a&#45;7d33bc0811a9&#45;&#45;08746c29&#45;0759&#45;4d5f&#45;8ee4&#45;bd327723004e</title>
<path fill="none" stroke="black" d="M120,-188.43C120,-170.87 120,-143.8 120,-126.29"/>
</g>
<!-- f42cc676&#45;1368&#45;4921&#45;9ea3&#45;941a49970403 -->
<g id="node6" class="node">
<title>f42cc676&#45;1368&#45;4921&#45;9ea3&#45;941a49970403</title>
<polygon fill="white" stroke="blue" points="224,-126.18 170,-126.18 170,-90.18 224,-90.18 224,-126.18"/>
<text text-anchor="middle" x="197" y="-106.28" font-family="Helvetica,Arial,sans-serif" font-size="8.00" fill="blue"> NUMBER </text>
</g>
<!-- d1ad7f94&#45;bf62&#45;465c&#45;a77a&#45;7d33bc0811a9&#45;&#45;f42cc676&#45;1368&#45;4921&#45;9ea3&#45;941a49970403 -->
<g id="edge5" class="edge">
<title>d1ad7f94&#45;bf62&#45;465c&#45;a77a&#45;7d33bc0811a9&#45;&#45;f42cc676&#45;1368&#45;4921&#45;9ea3&#45;941a49970403</title>
<path fill="none" stroke="black" d="M133.77,-188.43C147.78,-170.87 169.38,-143.8 183.35,-126.29"/>
</g>
<!-- 4720f7e6&#45;f2bf&#45;4757&#45;9a31&#45;18a10525dcfc -->
<g id="node3" class="node">
<title>4720f7e6&#45;f2bf&#45;4757&#45;9a31&#45;18a10525dcfc</title>
<ellipse fill="white" stroke="green" cx="48" cy="-35.09" rx="31.64" ry="19.18"/>
<text text-anchor="middle" x="48" y="-31.99" font-family="Helvetica,Arial,sans-serif" font-size="12.00" fill="green">42.00</text>
</g>
<!-- bdf54435&#45;bbc3&#45;4cec&#45;9341&#45;82dc0d96c693&#45;&#45;4720f7e6&#45;f2bf&#45;4757&#45;9a31&#45;18a10525dcfc -->
<g id="edge2" class="edge">
<title>bdf54435&#45;bbc3&#45;4cec&#45;9341&#45;82dc0d96c693&#45;&#45;4720f7e6&#45;f2bf&#45;4757&#45;9a31&#45;18a10525dcfc</title>
<path fill="none" stroke="black" d="M44.21,-89.97C44.97,-79.21 45.94,-65.35 46.71,-54.39"/>
</g>
<!-- 17f23ceb&#45;af16&#45;4174&#45;b185&#45;42609aba7ccb -->
<g id="node5" class="node">
<title>17f23ceb&#45;af16&#45;4174&#45;b185&#45;42609aba7ccb</title>
<ellipse fill="white" stroke="red" cx="120" cy="-35.09" rx="18" ry="19.18"/>
<text text-anchor="middle" x="120" y="-31.99" font-family="Helvetica,Arial,sans-serif" font-size="12.00" fill="red">+</text>
</g>
<!-- 08746c29&#45;0759&#45;4d5f&#45;8ee4&#45;bd327723004e&#45;&#45;17f23ceb&#45;af16&#45;4174&#45;b185&#45;42609aba7ccb -->
<g id="edge3" class="edge">
<title>08746c29&#45;0759&#45;4d5f&#45;8ee4&#45;bd327723004e&#45;&#45;17f23ceb&#45;af16&#45;4174&#45;b185&#45;42609aba7ccb</title>
<path fill="none" stroke="black" d="M120,-89.97C120,-79.21 120,-65.35 120,-54.39"/>
</g>
<!-- 08fee177&#45;1eae&#45;4a0c&#45;b7e1&#45;c042e5cb2aa5 -->
<g id="node7" class="node">
<title>08fee177&#45;1eae&#45;4a0c&#45;b7e1&#45;c042e5cb2aa5</title>
<ellipse fill="white" stroke="green" cx="192" cy="-35.09" rx="31.64" ry="19.18"/>
<text text-anchor="middle" x="192" y="-31.99" font-family="Helvetica,Arial,sans-serif" font-size="12.00" fill="green">24.00</text>
</g>
<!-- f42cc676&#45;1368&#45;4921&#45;9ea3&#45;941a49970403&#45;&#45;08fee177&#45;1eae&#45;4a0c&#45;b7e1&#45;c042e5cb2aa5 -->
<g id="edge6" class="edge">
<title>f42cc676&#45;1368&#45;4921&#45;9ea3&#45;941a49970403&#45;&#45;08fee177&#45;1eae&#45;4a0c&#45;b7e1&#45;c042e5cb2aa5</title>
<path fill="none" stroke="black" d="M195.79,-89.97C195.03,-79.21 194.06,-65.35 193.29,-54.39"/>
</g>
<!-- machine_code -->
<g id="node8" class="node">
<title>machine_code</title>
<polygon fill="white" stroke="transparent" points="354.5,-251.18 247.5,-251.18 247.5,-162.18 354.5,-162.18 354.5,-251.18"/>
<text text-anchor="start" x="254.5" y="-232.98" font-family="Courier:bold" font-size="14.00"># Expression</text>
<text text-anchor="start" x="254.5" y="-217.98" font-family="Courier:bold" font-size="14.00">LIT 42</text>
<text text-anchor="start" x="254.5" y="-202.98" font-family="Courier:bold" font-size="14.00">LIT 24</text>
<text text-anchor="start" x="254.5" y="-187.98" font-family="Courier:bold" font-size="14.00">ADD</text>
<text text-anchor="start" x="254.5" y="-172.98" font-family="Courier:bold" font-size="14.00">NIL</text>
</g>
</g>
</svg>
